# Blender v3.0.1 OBJ File: 'soda can.blend'
# www.blender.org
mtllib soda-can.mtl
o Cylinder_Cylinder.001
v 0.000000 0.002400 -0.055025
v 0.000000 0.179735 -0.056504
v 0.027513 0.002400 -0.047653
v 0.028252 0.179735 -0.048934
v 0.047653 0.002400 -0.027513
v 0.048934 0.179735 -0.028252
v 0.055025 0.002400 0.000000
v 0.056504 0.179735 0.000000
v 0.047653 0.002400 0.027513
v 0.048934 0.179735 0.028252
v 0.027513 0.002400 0.047653
v 0.028252 0.179735 0.048934
v -0.000000 0.002400 0.055025
v -0.000000 0.179735 0.056504
v -0.027513 0.002400 0.047653
v -0.028252 0.179735 0.048934
v -0.047653 0.002400 0.027513
v -0.048934 0.179735 0.028252
v -0.055025 0.002400 -0.000000
v -0.056504 0.179735 -0.000000
v -0.047653 0.002400 -0.027513
v -0.048934 0.179735 -0.028252
v -0.027513 0.002400 -0.047653
v -0.028252 0.179735 -0.048934
v 0.000000 0.006823 -0.062500
v 0.031250 0.006823 -0.054127
v 0.031250 0.173985 -0.054127
v 0.000000 0.173985 -0.062500
v 0.054127 0.006823 -0.031250
v 0.054127 0.173985 -0.031250
v 0.062500 0.006823 0.000000
v 0.062500 0.173985 0.000000
v 0.054127 0.006823 0.031250
v 0.054127 0.173985 0.031250
v 0.031250 0.006823 0.054127
v 0.031250 0.173985 0.054127
v -0.000000 0.006823 0.062500
v -0.000000 0.173985 0.062500
v -0.031250 0.006823 0.054127
v -0.031250 0.173985 0.054127
v -0.054127 0.006823 0.031250
v -0.054127 0.173985 0.031250
v -0.062500 0.006823 -0.000000
v -0.062500 0.173985 -0.000000
v -0.054127 0.006823 -0.031250
v -0.054127 0.173985 -0.031250
v -0.031250 0.006823 -0.054127
v -0.031250 0.173985 -0.054127
v 0.025861 0.185065 -0.044793
v 0.000000 0.185065 -0.051722
v 0.044793 0.185065 -0.025861
v 0.051722 0.185065 0.000000
v 0.044793 0.185065 0.025861
v 0.025861 0.185065 0.044793
v -0.000000 0.185065 0.051722
v -0.025861 0.185065 0.044793
v -0.044793 0.185065 0.025861
v -0.051722 0.185065 -0.000000
v -0.044793 0.185065 -0.025861
v -0.025861 0.185065 -0.044793
v 0.027513 0.185065 -0.047653
v 0.000000 0.185065 -0.055025
v 0.047653 0.185065 -0.027513
v 0.055025 0.185065 0.000000
v 0.047653 0.185065 0.027513
v 0.027513 0.185065 0.047653
v -0.000000 0.185065 0.055025
v -0.027513 0.185065 0.047653
v -0.047653 0.185065 0.027513
v -0.055025 0.185065 -0.000000
v -0.047653 0.185065 -0.027513
v -0.027513 0.185065 -0.047653
v 0.023668 0.174217 -0.040994
v 0.000000 0.174217 -0.047336
v 0.040994 0.174217 -0.023668
v 0.047336 0.174217 0.000000
v 0.040994 0.174217 0.023668
v 0.023668 0.174217 0.040994
v -0.000000 0.174217 0.047336
v -0.023668 0.174217 0.040994
v -0.040994 0.174217 0.023668
v -0.047336 0.174217 -0.000000
v -0.040994 0.174217 -0.023668
v -0.023668 0.174217 -0.040994
v 0.000000 -0.000222 -0.051395
v 0.025698 -0.000222 -0.044510
v 0.044510 -0.000222 -0.025698
v 0.051395 -0.000222 0.000000
v 0.044510 -0.000222 0.025698
v 0.025698 -0.000222 0.044510
v -0.000000 -0.000222 0.051395
v -0.025698 -0.000222 0.044510
v -0.044510 -0.000222 0.025698
v -0.051395 -0.000222 -0.000000
v -0.044510 -0.000222 -0.025698
v -0.025698 -0.000222 -0.044510
v 0.000000 -0.000222 -0.055025
v 0.027513 -0.000222 -0.047653
v 0.047653 -0.000222 -0.027513
v 0.055025 -0.000222 0.000000
v 0.047653 -0.000222 0.027513
v 0.027513 -0.000222 0.047653
v -0.000000 -0.000222 0.055025
v -0.027513 -0.000222 0.047653
v -0.047653 -0.000222 0.027513
v -0.055025 -0.000222 -0.000000
v -0.047653 -0.000222 -0.027513
v -0.027513 -0.000222 -0.047653
v 0.000000 0.004844 -0.051395
v 0.025698 0.004844 -0.044510
v 0.044510 0.004844 -0.025698
v 0.051395 0.004844 0.000000
v 0.044510 0.004844 0.025698
v 0.025698 0.004844 0.044510
v -0.000000 0.004844 0.051395
v -0.025698 0.004844 0.044510
v -0.044510 0.004844 0.025698
v -0.051395 0.004844 -0.000000
v -0.044510 0.004844 -0.025698
v -0.025698 0.004844 -0.044510
vt 1.000000 0.500000
vt 1.000000 1.000000
vt 0.916667 1.000000
vt 0.916667 0.500000
vt 0.833333 1.000000
vt 0.833333 0.500000
vt 0.750000 1.000000
vt 0.750000 0.500000
vt 0.666667 1.000000
vt 0.666667 0.500000
vt 0.583333 1.000000
vt 0.583333 0.500000
vt 0.500000 1.000000
vt 0.500000 0.500000
vt 0.416667 1.000000
vt 0.416667 0.500000
vt 0.333333 1.000000
vt 0.333333 0.500000
vt 0.250000 1.000000
vt 0.250000 0.500000
vt 0.166667 1.000000
vt 0.166667 0.500000
vt 0.432988 0.144352
vt 0.461297 0.250000
vt 0.461297 0.250000
vt 0.432988 0.144352
vt 0.083333 1.000000
vt 0.083333 0.500000
vt 0.000000 1.000000
vt 0.000000 0.500000
vt 0.567012 0.144352
vt 0.538703 0.250000
vt 0.538703 0.250000
vt 0.567012 0.144352
vt 0.855649 0.432988
vt 0.750000 0.461297
vt 0.750000 0.490000
vt 0.870000 0.457846
vt 0.250000 0.461297
vt 0.355648 0.432988
vt 0.370000 0.457846
vt 0.250000 0.490000
vt 0.932988 0.355648
vt 0.957846 0.370000
vt 0.432988 0.355648
vt 0.457846 0.370000
vt 0.961297 0.250000
vt 0.990000 0.250000
vt 0.490000 0.250000
vt 0.932988 0.144352
vt 0.957846 0.130000
vt 0.457846 0.130000
vt 0.855648 0.067012
vt 0.870000 0.042154
vt 0.355648 0.067012
vt 0.370000 0.042154
vt 0.750000 0.038703
vt 0.750000 0.010000
vt 0.250000 0.038703
vt 0.250000 0.010000
vt 0.644352 0.067012
vt 0.630000 0.042154
vt 0.144352 0.067012
vt 0.130000 0.042154
vt 0.542154 0.130000
vt 0.067012 0.144352
vt 0.042154 0.130000
vt 0.510000 0.250000
vt 0.038703 0.250000
vt 0.010000 0.250000
vt 0.567012 0.355648
vt 0.542154 0.370000
vt 0.067012 0.355648
vt 0.042154 0.370000
vt 0.644352 0.432988
vt 0.630000 0.457846
vt 0.144352 0.432988
vt 0.130000 0.457846
vt 0.077995 0.349307
vt 0.051386 0.250000
vt 0.051386 0.250000
vt 0.077995 0.349307
vt 0.067012 0.355648
vt 0.144352 0.432988
vt 0.355648 0.067012
vt 0.250000 0.038703
vt 0.250000 0.461297
vt 0.355648 0.432988
vt 0.144352 0.067012
vt 0.067012 0.144352
vt 0.432988 0.355648
vt 0.038703 0.250000
vt 0.250000 0.448614
vt 0.349307 0.422005
vt 0.422005 0.349307
vt 0.448614 0.250000
vt 0.422005 0.150693
vt 0.349307 0.077995
vt 0.250000 0.051386
vt 0.150693 0.077995
vt 0.077995 0.150693
vt 0.150693 0.422005
vt 0.349307 0.422005
vt 0.250000 0.448614
vt 0.150693 0.422005
vt 0.077995 0.150693
vt 0.150693 0.077995
vt 0.250000 0.051386
vt 0.349307 0.077995
vt 0.422005 0.150693
vt 0.448614 0.250000
vt 0.422005 0.349307
vt 0.848679 0.079083
vt 0.750000 0.052642
vt 0.750000 0.052642
vt 0.848679 0.079083
vt 0.932988 0.144352
vt 0.961297 0.250000
vt 0.644352 0.432988
vt 0.567012 0.355648
vt 0.750000 0.038703
vt 0.855648 0.067012
vt 0.855649 0.432988
vt 0.750000 0.461297
vt 0.644352 0.067012
vt 0.932988 0.355648
vt 0.848679 0.420917
vt 0.750000 0.447358
vt 0.920917 0.348679
vt 0.947358 0.250000
vt 0.920917 0.151321
vt 0.651321 0.079083
vt 0.579083 0.151321
vt 0.552642 0.250000
vt 0.579083 0.348679
vt 0.651321 0.420917
vt 0.750000 0.447358
vt 0.848679 0.420917
vt 0.920917 0.348679
vt 0.947358 0.250000
vt 0.920917 0.151321
vt 0.651321 0.079083
vt 0.579083 0.151321
vt 0.552642 0.250000
vt 0.579083 0.348679
vt 0.651321 0.420917
vn 0.2588 0.0000 -0.9659
vn 0.7071 0.0000 -0.7071
vn 0.9659 0.0000 -0.2588
vn 0.9659 0.0000 0.2588
vn 0.7071 0.0000 0.7071
vn 0.2588 0.0000 0.9659
vn -0.2588 0.0000 0.9659
vn -0.7071 0.0000 0.7071
vn -0.9659 0.0000 0.2588
vn -0.9659 0.0000 -0.2588
vn 0.9330 0.2588 0.2500
vn -0.7071 0.0000 -0.7071
vn -0.2588 0.0000 -0.9659
vn 0.1352 -0.8527 -0.5046
vn 0.1823 0.7097 -0.6805
vn 0.3694 -0.8527 -0.3694
vn 0.4982 0.7097 -0.4982
vn 0.5046 -0.8527 -0.1352
vn 0.6805 0.7097 -0.1823
vn 0.5046 -0.8527 0.1352
vn 0.6805 0.7097 0.1823
vn 0.3694 -0.8527 0.3694
vn 0.4982 0.7097 0.4982
vn 0.1352 -0.8527 0.5046
vn 0.1823 0.7097 0.6805
vn -0.1352 -0.8527 0.5046
vn -0.1823 0.7097 0.6805
vn -0.3694 -0.8527 0.3694
vn -0.4982 0.7097 0.4982
vn -0.5046 -0.8527 0.1352
vn -0.6805 0.7097 0.1823
vn -0.5046 -0.8527 -0.1352
vn -0.6805 0.7097 -0.1823
vn -0.3694 -0.8527 -0.3694
vn -0.4982 0.7097 -0.4982
vn -0.1352 -0.8527 -0.5046
vn -0.1823 0.7097 -0.6805
vn 0.8997 0.3638 0.2411
vn -0.6830 0.2588 -0.6830
vn 0.2500 0.2588 0.9330
vn 0.2500 0.2588 -0.9330
vn -0.6830 0.2588 0.6830
vn 0.9330 0.2588 -0.2500
vn -0.9330 0.2588 -0.2500
vn 0.6830 0.2588 0.6830
vn -0.2500 0.2588 -0.9330
vn -0.2500 0.2588 0.9330
vn 0.6830 0.2588 -0.6830
vn -0.9330 0.2588 0.2500
vn 0.0000 1.0000 0.0000
vn 0.2411 0.3638 -0.8997
vn -0.8997 0.3638 -0.2411
vn 0.6586 0.3638 0.6586
vn -0.2411 0.3638 0.8997
vn 0.6586 0.3638 -0.6586
vn -0.6586 0.3638 -0.6586
vn 0.2411 0.3638 0.8997
vn -0.6586 0.3638 0.6586
vn 0.8997 0.3638 -0.2411
vn -0.2411 0.3638 -0.8997
vn -0.8997 0.3638 0.2411
vn 0.0000 -1.0000 0.0000
usemtl Material.001
s off
f 25/1/1 28/2/1 27/3/1 26/4/1
f 26/4/2 27/3/2 30/5/2 29/6/2
f 29/6/3 30/5/3 32/7/3 31/8/3
f 31/8/4 32/7/4 34/9/4 33/10/4
f 33/10/5 34/9/5 36/11/5 35/12/5
f 35/12/6 36/11/6 38/13/6 37/14/6
f 37/14/7 38/13/7 40/15/7 39/16/7
f 39/16/8 40/15/8 42/17/8 41/18/8
f 41/18/9 42/17/9 44/19/9 43/20/9
f 43/20/10 44/19/10 46/21/10 45/22/10
f 10/23/11 8/24/11 64/25/11 65/26/11
f 45/22/12 46/21/12 48/27/12 47/28/12
f 47/28/13 48/27/13 28/29/13 25/30/13
f 17/31/9 19/32/9 106/33/9 105/34/9
f 3/35/14 1/36/14 25/37/14 26/38/14
f 2/39/15 4/40/15 27/41/15 28/42/15
f 5/43/16 3/35/16 26/38/16 29/44/16
f 4/40/17 6/45/17 30/46/17 27/41/17
f 7/47/18 5/43/18 29/44/18 31/48/18
f 6/45/19 8/24/19 32/49/19 30/46/19
f 9/50/20 7/47/20 31/48/20 33/51/20
f 8/24/21 10/23/21 34/52/21 32/49/21
f 11/53/22 9/50/22 33/51/22 35/54/22
f 10/23/23 12/55/23 36/56/23 34/52/23
f 13/57/24 11/53/24 35/54/24 37/58/24
f 12/55/25 14/59/25 38/60/25 36/56/25
f 15/61/26 13/57/26 37/58/26 39/62/26
f 14/59/27 16/63/27 40/64/27 38/60/27
f 17/31/28 15/61/28 39/62/28 41/65/28
f 16/63/29 18/66/29 42/67/29 40/64/29
f 19/32/30 17/31/30 41/65/30 43/68/30
f 18/66/31 20/69/31 44/70/31 42/67/31
f 21/71/32 19/32/32 43/68/32 45/72/32
f 20/69/33 22/73/33 46/74/33 44/70/33
f 23/75/34 21/71/34 45/72/34 47/76/34
f 22/73/35 24/77/35 48/78/35 46/74/35
f 1/36/36 23/75/36 47/76/36 25/37/36
f 24/77/37 2/39/37 28/42/37 48/78/37
f 59/79/38 58/80/38 82/81/38 83/82/38
f 24/77/39 22/73/39 71/83/39 72/84/39
f 14/59/40 12/55/40 66/85/40 67/86/40
f 4/40/41 2/39/41 62/87/41 61/88/41
f 18/66/42 16/63/42 68/89/42 69/90/42
f 8/24/43 6/45/43 63/91/43 64/25/43
f 22/73/44 20/69/44 70/92/44 71/83/44
f 12/55/45 10/23/45 65/26/45 66/85/45
f 2/39/46 24/77/46 72/84/46 62/87/46
f 16/63/47 14/59/47 67/86/47 68/89/47
f 6/45/48 4/40/48 61/88/48 63/91/48
f 20/69/49 18/66/49 69/90/49 70/92/49
f 50/93/50 49/94/50 61/88/50 62/87/50
f 49/94/50 51/95/50 63/91/50 61/88/50
f 51/95/50 52/96/50 64/25/50 63/91/50
f 52/96/50 53/97/50 65/26/50 64/25/50
f 53/97/50 54/98/50 66/85/50 65/26/50
f 54/98/50 55/99/50 67/86/50 66/85/50
f 55/99/50 56/100/50 68/89/50 67/86/50
f 56/100/50 57/101/50 69/90/50 68/89/50
f 57/101/50 58/80/50 70/92/50 69/90/50
f 58/80/50 59/79/50 71/83/50 70/92/50
f 59/79/50 60/102/50 72/84/50 71/83/50
f 60/102/50 50/93/50 62/87/50 72/84/50
f 73/103/50 74/104/50 84/105/50 83/82/50 82/81/50 81/106/50 80/107/50 79/108/50 78/109/50 77/110/50 76/111/50 75/112/50
f 56/100/51 55/99/51 79/108/51 80/107/51
f 53/97/52 52/96/52 76/111/52 77/110/52
f 60/102/53 59/79/53 83/82/53 84/105/53
f 49/94/54 50/93/54 74/104/54 73/103/54
f 57/101/55 56/100/55 80/107/55 81/106/55
f 54/98/56 53/97/56 77/110/56 78/109/56
f 50/93/57 60/102/57 84/105/57 74/104/57
f 51/95/58 49/94/58 73/103/58 75/112/58
f 58/80/59 57/101/59 81/106/59 82/81/59
f 55/99/60 54/98/60 78/109/60 79/108/60
f 52/96/61 51/95/61 75/112/61 76/111/61
f 90/113/13 91/114/13 115/115/13 114/116/13
f 7/47/4 9/50/4 101/117/4 100/118/4
f 21/71/12 23/75/12 108/119/12 107/120/12
f 11/53/6 13/57/6 103/121/6 102/122/6
f 1/36/1 3/35/1 98/123/1 97/124/1
f 15/61/8 17/31/8 105/34/8 104/125/8
f 5/43/3 7/47/3 100/118/3 99/126/3
f 19/32/10 21/71/10 107/120/10 106/33/10
f 9/50/5 11/53/5 102/122/5 101/117/5
f 23/75/13 1/36/13 97/124/13 108/119/13
f 13/57/7 15/61/7 104/125/7 103/121/7
f 3/35/2 5/43/2 99/126/2 98/123/2
f 86/127/62 85/128/62 97/124/62 98/123/62
f 87/129/62 86/127/62 98/123/62 99/126/62
f 88/130/62 87/129/62 99/126/62 100/118/62
f 89/131/62 88/130/62 100/118/62 101/117/62
f 90/113/62 89/131/62 101/117/62 102/122/62
f 91/114/62 90/113/62 102/122/62 103/121/62
f 92/132/62 91/114/62 103/121/62 104/125/62
f 93/133/62 92/132/62 104/125/62 105/34/62
f 94/134/62 93/133/62 105/34/62 106/33/62
f 95/135/62 94/134/62 106/33/62 107/120/62
f 96/136/62 95/135/62 107/120/62 108/119/62
f 85/128/62 96/136/62 108/119/62 97/124/62
f 109/137/62 110/138/62 111/139/62 112/140/62 113/141/62 114/116/62 115/115/62 116/142/62 117/143/62 118/144/62 119/145/62 120/146/62
f 87/129/9 88/130/9 112/140/9 111/139/9
f 94/134/4 95/135/4 119/145/4 118/144/4
f 91/114/1 92/132/1 116/142/1 115/115/1
f 88/130/10 89/131/10 113/141/10 112/140/10
f 95/135/5 96/136/5 120/146/5 119/145/5
f 85/128/7 86/127/7 110/138/7 109/137/7
f 92/132/2 93/133/2 117/143/2 116/142/2
f 89/131/12 90/113/12 114/116/12 113/141/12
f 96/136/6 85/128/6 109/137/6 120/146/6
f 86/127/8 87/129/8 111/139/8 110/138/8
f 93/133/3 94/134/3 118/144/3 117/143/3
